<svg width="21" height="26" viewBox="0 0 21 26" fill="none" xmlns="http://www.w3.org/2000/svg">
<path d="M17.8224 6.01777C16.5877 6.18657 15.7262 7.05723 14.3672 7.49256C12.4042 8.11445 9.71288 7.81239 7.86538 6.87954C7.8032 6.844 7.74104 6.81736 7.67886 6.78182L7.48345 8.47871L7.16369 11.1706L6.28435 18.6778C5.92906 18.5268 5.5116 18.4468 5.05861 18.4468C3.52198 18.4468 2.15411 19.4241 2.012 20.6324C1.86988 21.8406 3.00681 22.8179 4.54344 22.8179C6.08006 22.8179 7.44792 21.8406 7.59003 20.6324L8.82466 9.98903L8.9579 9.02065C10.7077 9.34937 12.0933 9.18945 13.5589 8.4876C14.5626 7.97231 15.4597 7.53698 16.3479 7.34153L16.0104 10.3711L15.0422 18.6245C14.6869 18.4735 14.2695 18.3935 13.8165 18.3935C12.2799 18.3935 10.912 19.3708 10.7699 20.5791C10.6278 21.7873 11.7647 22.7646 13.3013 22.7646C14.8379 22.7646 16.1525 21.8229 16.339 20.6413V20.5791L17.8579 7.27045L18 6C17.9378 6 17.8668 6.00889 17.8046 6.01777H17.8224Z" fill="#D6FF30"/>
</svg>
