<svg width="21" height="26" viewBox="0 0 21 26" fill="none" xmlns="http://www.w3.org/2000/svg">
<path d="M7.4781 25.2351C7.88541 25.4653 9.22247 25.6602 10.4621 25.6602C11.7018 25.6602 13.0388 25.4653 13.4373 25.2351C14.1191 24.8542 13.9154 23.3575 13.7295 22.7729C13.5967 22.3567 13.3045 21.657 13.3045 20.1868C13.3045 18.6103 13.818 15.5724 13.8446 15.3864C13.88 15.0765 13.9597 14.7576 13.7915 14.6868C14.004 14.5273 13.8357 10.6481 13.4638 10.5064C13.6498 10.5064 13.5878 10.0724 13.5435 9.77131C13.4727 9.22219 12.9857 7.92912 12.5695 6.5209C12.3836 5.89208 12.0914 4.95327 11.994 4.25359C11.9054 3.60705 11.9231 2.77452 11.9231 2.4114C12.0471 2.2874 12.0914 2.23427 12.0914 2.03942C12.0914 1.83571 11.8257 1.33974 11.8257 1.26889C11.8257 1.19804 11.8257 1.11832 11.9231 1.02976C12.0294 0.94119 12.0205 0.772911 11.9763 0.640061C11.9231 0.48064 11.7283 0.436362 11.6132 0.409792C11.507 0.383222 10.9934 0.330078 10.4533 0.330078C9.91313 0.330078 9.39956 0.383222 9.29331 0.409792C9.1782 0.436362 8.98339 0.489497 8.93026 0.640061C8.88599 0.772911 8.87714 0.932333 8.9834 1.02976C9.07194 1.10947 9.0808 1.19804 9.0808 1.26889C9.0808 1.33974 8.82401 1.83571 8.81515 2.03942C8.81515 2.23427 8.85943 2.2874 8.9834 2.4114C8.9834 2.77452 9.0011 3.60705 8.91256 4.25359C8.81516 4.95327 8.52295 5.89208 8.337 6.5209C7.92083 7.92912 7.43383 9.22219 7.36299 9.77131C7.32757 10.0724 7.25674 10.5064 7.44268 10.5064C7.07964 10.657 6.9114 14.5362 7.11506 14.6868C6.94682 14.7576 7.01766 15.0765 7.06193 15.3864C7.0885 15.5724 7.60207 18.6191 7.60207 20.1868C7.60207 21.6481 7.30986 22.3567 7.17704 22.7729C6.99109 23.3575 6.79629 24.8542 7.46925 25.2351H7.4781Z" fill="#D6FF30"/>
</svg>
