<svg width="21" height="26" viewBox="0 0 21 26" fill="none" xmlns="http://www.w3.org/2000/svg">
<path fill-rule="evenodd" clip-rule="evenodd" d="M20 15.139C20 14.254 19.8836 13.369 19.6274 12.5073C19.4645 11.9717 19.2782 11.436 18.9988 10.877C17.3689 7.66306 14.1091 5.66016 10.5 5.66016C6.89093 5.66016 3.63113 7.66307 2.00123 10.9003C1.72181 11.4593 1.51226 11.9949 1.37256 12.5306C1.11643 13.369 1 14.254 1 15.1623C1 16.1871 1.25613 17.2351 1.48897 18.1434C1.34926 18.3763 1.163 18.8887 1.44241 19.7038L1.4775 19.8092C1.74484 20.6125 2.46909 22.7888 3.00245 23.9891C3.18873 24.4083 3.60784 24.8508 4.05024 24.8741C4.09681 24.944 4.16666 25.0371 4.21323 25.0837C4.3995 25.27 4.70221 25.3632 5.12133 25.3632C5.56373 25.3632 6.02942 25.2467 6.28555 25.1536L6.56495 25.0371L6.16912 23.9425L5.91299 23.2671V23.1507L5.1446 21.0779L4.53922 19.4011L4.37623 18.912L3.93383 17.7009L3.8174 17.3516L3.63112 16.8159L2.88602 16.1172C2.56004 15.3486 2.56006 14.1842 2.86275 13.0197C3.00246 12.4607 3.18873 11.9716 3.42157 11.599C4.95833 9.15359 7.58946 7.70964 10.4767 7.70964C13.364 7.70964 15.9718 9.15359 17.5086 11.599V11.6456C17.7414 11.9949 17.951 12.484 18.0907 13.0197C18.3934 14.2074 18.3701 15.3719 18.0441 16.1172L17.299 16.8392L17.1127 17.3748L16.973 17.7242L16.5306 18.9352L16.3676 19.4011L15.7623 21.0779L15.0172 23.1507V23.2206L14.7377 23.9192L14.3419 25.0138L14.6213 25.1303C14.9007 25.2467 15.3897 25.3399 15.7855 25.3399C16.2046 25.3399 16.5306 25.2468 16.7169 25.0604C16.7518 25.0255 16.7809 24.9906 16.81 24.9556C16.8392 24.9207 16.8683 24.8858 16.9032 24.8508C17.3456 24.8275 17.7647 24.385 17.951 23.9658C18.4632 22.8246 19.1618 20.7751 19.511 19.6805C19.7672 18.8654 19.6042 18.3763 19.4645 18.1201C19.7206 17.2118 19.9534 16.1638 19.9534 15.139H20ZM16.414 16.7458L15.7853 16.5129H15.7621C15.3662 16.3732 14.9471 16.5595 14.7841 16.9554C13.8527 19.0748 13.1076 21.1941 12.5022 23.3368C12.3858 23.7327 12.5954 24.1752 12.9912 24.315L13.6432 24.5479C13.8062 24.5944 13.9924 24.5246 14.039 24.3615L16.6236 17.1418C16.6701 16.9787 16.6003 16.8157 16.4373 16.7691L16.414 16.7458ZM5.26026 16.5113C5.65609 16.3716 6.0985 16.5812 6.26149 16.9538C7.16957 19.0732 7.93795 21.1925 8.54334 23.3352C8.65976 23.7544 8.4502 24.1736 8.05437 24.3134L7.40241 24.5463C7.23942 24.5928 7.05315 24.523 7.00658 24.3599L4.42202 17.1401C4.35217 16.9771 4.44531 16.7908 4.6083 16.7442L5.23697 16.5113H5.26026Z" fill="#D6FF30"/>
</svg>
