<svg width="21" height="27" viewBox="0 0 21 27" fill="none" xmlns="http://www.w3.org/2000/svg">
<path d="M17.9056 14.7397C17.973 14.6588 18 14.5644 18 14.4835C18 14.4026 17.973 14.2947 17.9056 14.2273L17.5417 13.7824C17.4338 13.661 17.4203 13.4857 17.4877 13.3509L17.7304 12.8251C17.8113 12.6498 17.7574 12.4341 17.5956 12.3127L17.1238 11.9756C16.989 11.8812 16.9351 11.7329 16.962 11.5711L17.0564 11.0048C17.0833 10.8161 16.9755 10.6138 16.8003 10.5464L16.2611 10.3442C16.1128 10.2902 16.0049 10.1554 15.9915 9.99361L15.9375 9.42731C15.9241 9.22507 15.7623 9.07675 15.5601 9.04979L14.9939 8.99585C14.8322 8.98237 14.6974 8.8745 14.6434 8.72619L14.4413 8.18686C14.3739 7.9981 14.1851 7.89023 13.9829 7.93068L13.4168 8.02507C13.255 8.05203 13.1067 7.98462 13.0124 7.86327L12.6754 7.39136C12.5675 7.22956 12.3518 7.17563 12.1631 7.25653L11.6374 7.49922C11.4891 7.56664 11.3273 7.53967 11.206 7.44529L10.7612 7.08125C10.6129 6.9599 10.3837 6.9599 10.2355 7.08125L9.79061 7.44529C9.66929 7.55316 9.49405 7.56664 9.35924 7.49922L8.83352 7.25653C8.65828 7.17563 8.4426 7.22956 8.32128 7.39136L7.98428 7.86327C7.88992 7.9981 7.74163 8.05203 7.57987 8.02507L7.01371 7.93068C6.82499 7.90372 6.62278 8.01158 6.55538 8.18686L6.35319 8.72619C6.29926 8.8745 6.16446 8.98237 6.0027 8.99585L5.43654 9.04979C5.23434 9.06327 5.08605 9.22507 5.05909 9.42731L5.00517 9.99361C4.99169 10.1554 4.88385 10.2902 4.73557 10.3442L4.19636 10.5464C4.00764 10.6138 3.8998 10.8026 3.94024 11.0048L4.0346 11.5711C4.06156 11.7329 3.99416 11.8812 3.87284 11.9756L3.40104 12.3127C3.23928 12.4206 3.18536 12.6363 3.26624 12.8251L3.50888 13.3509C3.57628 13.4992 3.54932 13.661 3.45496 13.7824L3.09099 14.2273C2.96967 14.3756 2.96967 14.6048 3.09099 14.7532L3.45496 15.1981C3.5628 15.3194 3.57628 15.4947 3.50888 15.6296L3.26624 16.1554C3.18536 16.3307 3.23928 16.5464 3.40104 16.6678L3.87284 17.0048C4.00764 17.0992 4.06156 17.2475 4.0346 17.4093L3.94024 17.9756C3.91328 18.1644 4.02112 18.3666 4.19636 18.4341L4.73557 18.6363C4.88385 18.6902 4.99169 18.8251 5.00517 18.9869L5.05909 19.5532C5.07257 19.7554 5.23434 19.9037 5.43654 19.9307L6.0027 19.9846C6.16446 19.9981 6.29926 20.106 6.35319 20.2543L6.55538 20.7936C6.62278 20.9824 6.81151 21.0902 7.01371 21.0498L7.57987 20.9554C7.74163 20.9284 7.88992 20.9959 7.98428 21.1172L8.32128 21.5891C8.42912 21.7509 8.6448 21.8048 8.83352 21.7239L9.35924 21.4812C9.50753 21.4138 9.66929 21.4408 9.79061 21.5352L10.2355 21.8992C10.3837 22.0206 10.6129 22.0206 10.7612 21.8992L11.206 21.5352C11.3273 21.4273 11.5026 21.4138 11.6374 21.4812L12.1631 21.7239C12.3384 21.8048 12.554 21.7509 12.6754 21.5891L13.0124 21.1172C13.1067 20.9824 13.255 20.9284 13.4168 20.9554L13.9829 21.0498C14.1716 21.0768 14.3739 20.9689 14.4413 20.7936L14.6434 20.2543C14.6974 20.106 14.8322 19.9981 14.9939 19.9846L15.5601 19.9307C15.7623 19.9172 15.9106 19.7554 15.9375 19.5532L15.9915 18.9869C16.0049 18.8251 16.1128 18.6902 16.2611 18.6363L16.8003 18.4341C16.989 18.3666 17.0968 18.1779 17.0564 17.9756L16.962 17.4093C16.9351 17.2475 17.0025 17.0992 17.1238 17.0048L17.5956 16.6678C17.7574 16.5599 17.8113 16.3442 17.7304 16.1554L17.4877 15.6296C17.4203 15.4812 17.4473 15.3194 17.5417 15.1981L17.9056 14.7532V14.7397ZM13.9694 9.50821C12.9584 8.94192 11.7587 8.65877 10.5051 8.76664C7.59335 9.00934 5.23434 11.3824 5.00517 14.2947C4.85689 16.2093 5.59829 17.9487 6.85194 19.1621C6.8789 19.1891 6.85194 19.243 6.8115 19.2161C5.15345 18.0026 4.14245 15.9666 4.37161 13.7015C4.65469 10.9105 6.89238 8.64529 9.69625 8.33518C11.3139 8.1599 12.8236 8.61833 13.9964 9.49473C13.9964 9.49473 13.9964 9.5217 13.9964 9.50821H13.9694Z" fill="#D6FF30"/>
</svg>
