<svg width="21" height="26" viewBox="0 0 21 26" fill="none" xmlns="http://www.w3.org/2000/svg">
<path d="M18.4679 12.4292C16.7579 10.9514 14.6922 8.3927 13.2011 8.32428C11.2585 8.2285 10 9.89783 10 9.89783C10 9.89783 8.72777 8.2285 6.79891 8.32428C5.3078 8.40638 3.24213 10.9514 1.53214 12.4292C1.06703 12.826 0.560876 13.1544 0 13.4007L0.0957693 13.4417C0.437767 13.5922 0.7524 13.7838 1.05336 13.9891C1.66895 14.4132 2.42133 14.9879 2.74965 15.3984C3.35157 16.1647 5.95075 18.8739 10 18.8055C14.0492 18.8739 16.6484 16.1647 17.2503 15.3984C17.5787 14.9742 18.3311 14.4132 18.9467 13.9891C19.2476 13.7838 19.5759 13.5922 19.9043 13.4417L20 13.4007C19.4528 13.1544 18.933 12.826 18.4679 12.4292ZM12.2572 16.8899C11.2175 17.2867 10.2189 17.3551 9.34337 17.1909C8.48154 17.0267 7.42818 16.7393 6.96306 16.4246C8.07113 16.6983 9.30234 16.7667 10.2462 16.3425C11.2038 15.9184 11.4638 15.3163 11.4638 15.3163C12.2025 15.9184 14.3365 15.4668 15.6908 14.9332C14.2955 16.1099 12.2435 16.8899 12.2435 16.8899H12.2572Z" fill="#D6FF30"/>
</svg>
