<svg width="21" height="26" viewBox="0 0 21 26" fill="none" xmlns="http://www.w3.org/2000/svg">
<path fill-rule="evenodd" clip-rule="evenodd" d="M17.688 12.9034C18.1665 12.5338 18.5278 12.1168 18.8737 11.7177C19.3247 11.1973 19.7495 10.7071 20.3736 10.3919C20.2535 10.1189 20.1661 9.95513 20.1661 9.95513H20.1552C19.1836 8.34995 17.4369 8.09882 16.1814 8.44824C16.0395 8.49192 15.8648 8.54651 15.6901 8.62294L9.13988 11.0253L2.58963 13.4385C2.40404 13.504 2.24028 13.5695 2.09836 13.635C0.831977 14.2356 -0.434402 15.7207 0.144203 17.8172C0.144203 17.8172 0.1442 17.85 0.166034 17.8937L0.198788 18.0247C0.275208 18.2431 0.362542 18.4506 0.460796 18.658C2.42587 18.8655 4.91497 18.2431 6.46519 17.0419C6.93904 16.6743 7.29971 16.2617 7.64485 15.8669C8.14965 15.2895 8.62122 14.7501 9.36507 14.4447L9.36913 14.4649V14.4431L9.36507 14.4447C9.3124 14.1844 9.27088 14.0391 9.27088 14.0391C9.20409 13.8386 9.11815 13.6191 9.06676 13.4878L9.06675 13.4878C9.05095 13.4474 9.03841 13.4154 9.03071 13.3948C9.2163 13.1218 9.4783 12.9143 9.7949 12.7942C10.1115 12.6741 10.4499 12.6741 10.7665 12.7615C10.8102 12.9034 11.0722 13.6241 11.1486 13.777C11.2141 13.9189 11.3015 14.0609 11.4106 14.2247C11.4271 14.251 11.4435 14.2783 11.4606 14.3066L11.4606 14.3066C11.5001 14.3723 11.5428 14.4432 11.5962 14.5195C13.5722 14.7598 16.1377 14.1483 17.7098 12.9253L17.688 12.9034ZM5.99582 17.7515C4.72944 19.0509 3.31021 19.6624 1.15955 19.8699C2.07658 21.1475 3.68139 22.3705 6.30149 21.4095C9.64212 20.1756 9.72946 16.9762 9.5002 15.2181C8.14648 15.513 7.15303 16.4848 5.99582 17.7515ZM12.5347 15.7092C14.6089 15.4908 15.9845 14.8793 17.229 13.6126C18.3535 12.3678 19.336 11.4069 20.6461 11.0902C21.1919 12.75 21.5849 15.7747 18.015 17.0851C15.5041 18.0132 13.67 16.8885 12.5347 15.7092Z" fill="#D6FF30"/>
</svg>
